<svg xmlns="http://www.w3.org/2000/svg" width="1200" height="900" viewBox="0 0 1200 900">
<defs><linearGradient id="g" x1="0" y1="0" x2="1" y2="1"><stop stop-color="#121a27"/><stop offset="1" stop-color="#0b1118"/></linearGradient><pattern id="grid" width="48" height="48" patternUnits="userSpaceOnUse"><path d="M48 0H0V48" fill="none" stroke="#ffffff" stroke-opacity=".035"/></pattern></defs>
<rect width="100%" height="100%" rx="32" fill="url(#g)"/><rect width="100%" height="100%" rx="32" fill="url(#grid)"/>
<circle cx="983" cy="180" r="198" fill="#7857ff" opacity=".12"/>
<circle cx="216" cy="738" r="153" fill="#8dff6a" opacity=".055"/>
<rect x="72" y="81" width="1056" height="72" rx="14" fill="#182231" stroke="#2c3a50"/>
<circle cx="102" cy="117" r="7" fill="#8dff6a"/><text x="126" y="125" fill="#f4f7fb" font-family="Arial, sans-serif" font-size="22" font-weight="700">PLANCITO</text>
<text x="84" y="270" fill="#7857ff" font-family="monospace" font-size="22">SYSTEM FLOW</text>
<text x="84" y="387" fill="#f4f7fb" font-family="Arial, sans-serif" font-size="76" font-weight="700">Events platform</text>
<text x="84" y="468" fill="#9eabbd" font-family="monospace" font-size="23">Descubre  ·  Organiza  ·  Conecta</text>
<g transform="translate(84 585)">
<rect width="288" height="144" rx="18" fill="#151f2c" stroke="#2a384d"/><rect x="318" width="288" height="144" rx="18" fill="#151f2c" stroke="#2a384d"/><rect x="636" width="288" height="144" rx="18" fill="#151f2c" stroke="#2a384d"/>
<path d="M35 99 C90 54, 145 117, 205 58 S320 81, 370 40" fill="none" stroke="#7857ff" stroke-width="5"/>
<rect x="354" y="54" width="192" height="10" rx="5" fill="#7857ff"/><rect x="354" y="85" width="132" height="10" rx="5" fill="#8dff6a"/>
<circle cx="780" cy="72" r="35" fill="none" stroke="#7857ff" stroke-width="7"/><circle cx="780" cy="72" r="8" fill="#8dff6a"/>
</g>
</svg>